<?xml version="1.0" encoding="UTF-8" standalone="no"?>
<!-- Created with Inkscape (http://www.inkscape.org/) -->

<svg
   width="48"
   height="48"
   viewBox="0 0 12.7 12.7"
   version="1.1"
   id="svg5"
   inkscape:version="1.1.2 (0a00cf5339, 2022-02-04)"
   sodipodi:docname="logo.svg"
   xmlns:inkscape="http://www.inkscape.org/namespaces/inkscape"
   xmlns:sodipodi="http://sodipodi.sourceforge.net/DTD/sodipodi-0.dtd"
   xmlns="http://www.w3.org/2000/svg"
   xmlns:svg="http://www.w3.org/2000/svg">
  <sodipodi:namedview
     id="namedview7"
     pagecolor="#ffffff"
     bordercolor="#666666"
     borderopacity="1.0"
     inkscape:pageshadow="2"
     inkscape:pageopacity="0.0"
     inkscape:pagecheckerboard="0"
     inkscape:document-units="mm"
     showgrid="false"
     units="px"
     inkscape:snap-smooth-nodes="true"
     inkscape:snap-center="false"
     inkscape:snap-bbox="false"
     inkscape:snap-object-midpoints="true"
     inkscape:zoom="11.015838"
     inkscape:cx="16.612445"
     inkscape:cy="36.765246"
     inkscape:window-width="1941"
     inkscape:window-height="1007"
     inkscape:window-x="1260"
     inkscape:window-y="511"
     inkscape:window-maximized="0"
     inkscape:current-layer="layer1" />
  <defs
     id="defs2" />
  <g
     inkscape:label="Layer 1"
     inkscape:groupmode="layer"
     id="layer1">
    <path
       id="path83"
       style="fill:#aa0000;stroke-width:0.339513"
       d="M 6.3499646,0.35025267 1.1536972,3.3499349 1.1540292,9.3498767 6.3497344,12.349618 11.546003,9.3499353 11.54567,3.3499945 Z M 6.34976,1.8502199 10.246762,4.1001553 10.246853,8.5998708 6.3499401,10.84965 2.4529376,8.5997142 2.4528473,4.0999996 Z" />
    <path
       id="path217"
       style="fill:#b3b3b3;stroke-width:0.31967"
       inkscape:transform-center-x="0.23144635"
       inkscape:transform-center-y="0.13110053"
       d="m 6.3496791,1.3501448 -4.330031,2.4997474 1.71e-4,4.9997901 4.3302018,2.5000427 4.3300311,-2.499746 -1.71e-4,-4.999791 z m 8.06e-5,0.5000757 3.8970023,2.2499354 9.1e-5,4.4997151 L 6.3499396,10.84965 2.4529372,8.5997151 2.4528473,4.0999999 Z" />
    <path
       sodipodi:type="star"
       style="fill:#d45500"
       id="path1053"
       inkscape:flatsided="true"
       sodipodi:sides="6"
       sodipodi:cx="-37.92942"
       sodipodi:cy="16.459045"
       sodipodi:r1="9.0714579"
       sodipodi:r2="7.856113"
       sodipodi:arg1="0"
       sodipodi:arg2="0.52359878"
       inkscape:rounded="0"
       inkscape:randomized="0"
       d="m -28.857963,16.459045 -4.535729,7.856113 h -9.071457 l -4.535729,-7.856113 4.535729,-7.8561125 9.071457,0 z"
       transform="matrix(0.14319701,0.08267483,-0.08267483,0.14319701,13.141979,4.1289321)" />
    <path
       sodipodi:type="star"
       style="fill:#d45500"
       id="path1053-35"
       inkscape:flatsided="true"
       sodipodi:sides="6"
       sodipodi:cx="-37.92942"
       sodipodi:cy="16.459045"
       sodipodi:r1="9.0714579"
       sodipodi:r2="7.856113"
       sodipodi:arg1="0"
       sodipodi:arg2="0.52359878"
       inkscape:rounded="0"
       inkscape:randomized="0"
       transform="matrix(0.14319701,0.08267483,-0.08267483,0.14319701,13.142083,8.6286558)"
       d="m -28.857963,16.459045 -4.535729,7.856113 h -9.071457 l -4.535729,-7.856113 4.535729,-7.8561125 9.071457,0 z" />
    <path
       sodipodi:type="star"
       style="fill:#550000"
       id="path1053-3"
       inkscape:flatsided="true"
       sodipodi:sides="6"
       sodipodi:cx="-37.92942"
       sodipodi:cy="16.459045"
       sodipodi:r1="9.0714579"
       sodipodi:r2="7.856113"
       sodipodi:arg1="0"
       sodipodi:arg2="0.52359878"
       inkscape:rounded="0"
       inkscape:randomized="0"
       transform="matrix(0.14319701,0.08267483,-0.08267483,0.14319701,11.842973,6.3788765)"
       d="m -28.857963,16.459045 -4.535729,7.856113 h -9.071457 l -4.535729,-7.856113 4.535729,-7.8561125 9.071457,0 z" />
    <path
       sodipodi:type="star"
       style="fill:#008000"
       id="path1053-3-6"
       inkscape:flatsided="true"
       sodipodi:sides="6"
       sodipodi:cx="-37.92942"
       sodipodi:cy="16.459045"
       sodipodi:r1="9.0714579"
       sodipodi:r2="7.856113"
       sodipodi:arg1="0"
       sodipodi:arg2="0.52359878"
       inkscape:rounded="0"
       inkscape:randomized="0"
       transform="matrix(0.14319701,0.08267483,-0.08267483,0.14319701,15.739975,8.628812)"
       d="m -28.857963,16.459045 -4.535729,7.856113 h -9.071457 l -4.535729,-7.856113 4.535729,-7.8561125 9.071457,0 z" />
    <path
       sodipodi:type="star"
       style="fill:#000080"
       id="path1053-3-7"
       inkscape:flatsided="true"
       sodipodi:sides="6"
       sodipodi:cx="-37.92942"
       sodipodi:cy="16.459045"
       sodipodi:r1="9.0714579"
       sodipodi:r2="7.856113"
       sodipodi:arg1="0"
       sodipodi:arg2="0.52359878"
       inkscape:rounded="0"
       inkscape:randomized="0"
       transform="matrix(0.14319701,0.08267483,-0.08267483,0.14319701,10.544071,8.6286551)"
       d="m -28.857963,16.459045 -4.535729,7.856113 h -9.071457 l -4.535729,-7.856113 4.535729,-7.8561125 9.071457,0 z" />
    <path
       sodipodi:type="star"
       style="fill:#008000"
       id="path1053-3-5"
       inkscape:flatsided="true"
       sodipodi:sides="6"
       sodipodi:cx="-37.92942"
       sodipodi:cy="16.459045"
       sodipodi:r1="9.0714579"
       sodipodi:r2="7.856113"
       sodipodi:arg1="0"
       sodipodi:arg2="0.52359878"
       inkscape:rounded="0"
       inkscape:randomized="0"
       transform="matrix(0.14319701,0.08267483,-0.08267483,0.14319701,14.440984,6.3788771)"
       d="m -28.857963,16.459045 -4.535729,7.856113 h -9.071457 l -4.535729,-7.856113 4.535729,-7.8561125 9.071457,0 z" />
  </g>
</svg>
